<svg width="1117" height="240" viewBox="0 0 1117 240" fill="none" xmlns="http://www.w3.org/2000/svg">
<g filter="url(#filter0_d_36_668)">
<path d="M50 50C50 38.9543 58.9543 30 70 30H1047C1058.05 30 1067 38.9543 1067 50V170H50V50Z" fill="url(#paint0_linear_36_668)"/>
</g>
<mask id="mask0_36_668" style="mask-type:alpha" maskUnits="userSpaceOnUse" x="50" y="30" width="1017" height="140">
<path d="M50 50C50 38.9543 58.9543 30 70 30H1047C1058.05 30 1067 38.9543 1067 50V170H50V50Z" fill="#428777"/>
</mask>
<g mask="url(#mask0_36_668)">
<rect x="612" y="119.564" width="247.592" height="259.13" rx="123.796" stroke="#FB7D5B" stroke-width="16"/>
<rect x="771.011" y="69.6521" width="247.592" height="259.13" rx="123.796" stroke="#FCC43E" stroke-width="16"/>
</g>
<defs>
<filter id="filter0_d_36_668" x="0" y="0" width="1117" height="240" filterUnits="userSpaceOnUse" color-interpolation-filters="sRGB">
<feFlood flood-opacity="0" result="BackgroundImageFix"/>
<feColorMatrix in="SourceAlpha" type="matrix" values="0 0 0 0 0 0 0 0 0 0 0 0 0 0 0 0 0 0 127 0" result="hardAlpha"/>
<feOffset dy="20"/>
<feGaussianBlur stdDeviation="25"/>
<feColorMatrix type="matrix" values="0 0 0 0 0.74902 0 0 0 0 0.0823529 0 0 0 0 0.423529 0 0 0 0.05 0"/>
<feBlend mode="normal" in2="BackgroundImageFix" result="effect1_dropShadow_36_668"/>
<feBlend mode="normal" in="SourceGraphic" in2="effect1_dropShadow_36_668" result="shape"/>
</filter>
<linearGradient id="paint0_linear_36_668" x1="765.325" y1="-40.7629" x2="766.227" y2="261.741" gradientUnits="userSpaceOnUse">
<stop stop-color="#252472"/>
<stop offset="1" stop-color="#2321BD"/>
</linearGradient>
</defs>
</svg>
